<svg width="23" height="29" viewBox="0 0 23 29" fill="none" xmlns="http://www.w3.org/2000/svg">
<path opacity="0.5" fill-rule="evenodd" clip-rule="evenodd" d="M0 27.15C0 26.6056 0.441319 26.1643 0.985714 26.1643H22.0143C22.5587 26.1643 23 26.6056 23 27.15C23 27.6944 22.5587 28.1357 22.0143 28.1357H0.985714C0.441319 28.1357 0 27.6944 0 27.15Z" fill="#3E3E3E"/>
<path opacity="0.5" d="M20.8061 7.92411C22.4211 6.30907 22.4211 3.69057 20.8061 2.07554C19.1911 0.460498 16.5726 0.460498 14.9575 2.07554L14.0247 3.0084C14.0374 3.04697 14.0507 3.08608 14.0644 3.1257C14.4064 4.11125 15.0515 5.40323 16.2651 6.61686C17.4788 7.83049 18.7707 8.47563 19.7563 8.81756C19.7957 8.83124 19.8346 8.84443 19.8731 8.85715L20.8061 7.92411Z" fill="#3E3E3E"/>
<path d="M14.0643 2.96655L14.0241 3.00672C14.0369 3.04529 14.0502 3.0844 14.0639 3.12402C14.4058 4.10957 15.051 5.40155 16.2646 6.61518C17.4782 7.82881 18.7702 8.47395 19.7558 8.81588C19.7949 8.82944 19.8335 8.84252 19.8715 8.85514L10.8689 17.8578C10.2619 18.4648 9.95838 18.7683 9.62376 19.0293C9.22902 19.3372 8.80192 19.6011 8.35 19.8165C7.96691 19.9991 7.55972 20.1348 6.74539 20.4063L2.4511 21.8377C2.05036 21.9713 1.60853 21.867 1.30983 21.5683C1.01113 21.2696 0.906833 20.8278 1.04042 20.427L2.47184 16.1327C2.74329 15.3184 2.87902 14.9112 3.06159 14.5281C3.27697 14.0762 3.54093 13.6491 3.84882 13.2543C4.10981 12.9197 4.4133 12.6162 5.0202 12.0093L14.0643 2.96655Z" fill="#3E3E3E"/>
</svg>
