<svg width="30" height="31" viewBox="0 0 30 31" fill="none" xmlns="http://www.w3.org/2000/svg">
<path opacity="0.5" d="M16.4594 28.7138C21.0564 27.8116 27 24.5739 27 16.2013C27 8.58213 21.3039 3.50855 17.2081 1.1773C16.2993 0.659997 15.2353 1.34031 15.2353 2.3696V5.00236C15.2353 7.07843 14.3438 10.8679 11.8666 12.4441C10.6019 13.2489 9.23606 12.0444 9.08235 10.5753L8.95614 9.36894C8.80941 7.9665 7.35061 7.11514 6.20582 7.9702C4.14922 9.50629 2 12.1962 2 16.2013C2 26.4403 9.77778 29 13.6667 29C13.8929 29 14.1306 28.9934 14.378 28.9794C15.0338 28.8985 14.378 29.1223 16.4594 28.7138Z" fill="#FFCA00"/>
<path d="M9 23.4906C9 27.5661 12.3178 28.8264 14.3697 29C15.0704 28.9126 14.3697 29.1544 16.5937 28.713C18.2259 28.1421 20 26.6766 20 23.4906C20 21.4718 18.7136 20.2262 17.7058 19.6432C17.3975 19.4648 17.0395 19.6894 17.0119 20.0418C16.9246 21.159 15.841 22.0487 15.1029 21.1994C14.4505 20.4487 14.1765 19.3523 14.1765 18.6508V17.7342C14.1765 17.1816 13.6146 16.8155 13.1345 17.0974C11.3494 18.1458 9 20.3025 9 23.4906Z" fill="#FFCA00"/>
</svg>
