<svg width="24" height="22" viewBox="0 0 24 22" fill="none" xmlns="http://www.w3.org/2000/svg">
<path d="M23.1714 11.5585C23.3742 11.4459 23.5 11.2321 23.5 11.0001C23.5 10.768 23.3742 10.5542 23.1714 10.4416L20.2551 8.82139C14.5095 5.62941 8.45278 3.03296 2.17927 1.07249L1.32945 0.806919C1.13546 0.746297 0.924201 0.781591 0.760453 0.901979C0.596702 1.02237 0.5 1.21348 0.5 1.41673V8.76394C0.5 9.10374 0.76598 9.38409 1.10531 9.40195L2.39541 9.46985C5.5408 9.6354 8.66699 10.062 11.7417 10.7453L12.0462 10.813C12.114 10.828 12.1433 10.8557 12.1597 10.8777C12.1803 10.9054 12.1963 10.9482 12.1963 11.0001C12.1963 11.052 12.1803 11.0947 12.1597 11.1224C12.1433 11.1444 12.114 11.1721 12.0462 11.1872L11.7418 11.2548C8.667 11.9381 5.54079 12.3647 2.39538 12.5303L1.10531 12.5982C0.76598 12.616 0.5 12.8964 0.5 13.2362V20.5834C0.5 20.7866 0.596701 20.9777 0.760452 21.0981C0.9242 21.2185 1.13546 21.2538 1.32945 21.1932L2.17929 20.9276C8.45278 18.9671 14.5095 16.3707 20.2551 13.1787L23.1714 11.5585Z" fill="#3E3E3E"/>
</svg>
