<svg class="icon" width="19" height="19" viewBox="0 0 22 21" fill="none" xmlns="http://www.w3.org/2000/svg">
  <path d="M21.0426 20L1.0426 20" stroke="currentColor" stroke-width="1.5" stroke-linecap="round"/>
  <path d="M1.0426 8.99992L9.16852 2.49919C10.2642 1.62267 11.821 1.62267 12.9167 2.49919L21.0426 8.99992" stroke="currentColor" stroke-width="1.5" stroke-linecap="round"/>
  <path d="M14.5426 3.5V1.5C14.5426 1.22386 14.7665 1 15.0426 1H17.5426C17.8187 1 18.0426 1.22386 18.0426 1.5V6.5" stroke="currentColor" stroke-width="1.5" stroke-linecap="round"/>
  <path d="M3.0426 20V7.5" stroke="currentColor" stroke-width="1.5" stroke-linecap="round"/>
  <path d="M19.0426 20V7.5" stroke="currentColor" stroke-width="1.5" stroke-linecap="round"/>
  <path d="M14.0426 20V15C14.0426 13.5858 14.0426 12.8787 13.6033 12.4393C13.1639 12 12.4568 12 11.0426 12C9.62839 12 8.92128 12 8.48194 12.4393C8.0426 12.8787 8.0426 13.5858 8.0426 15V20" stroke="currentColor" stroke-width="1.5"/>
  <path d="M13.0426 7.5C13.0426 8.60457 12.1472 9.5 11.0426 9.5C9.93803 9.5 9.0426 8.60457 9.0426 7.5C9.0426 6.39543 9.93803 5.5 11.0426 5.5C12.1472 5.5 13.0426 6.39543 13.0426 7.5Z" stroke="currentColor" stroke-width="1.5"/>
</svg>