<svg width="487" height="487" viewBox="0 0 487 487" fill="none" xmlns="http://www.w3.org/2000/svg">
<g clip-path="url(#clip0_590_1371)">
<path d="M487 0H0V487H487V0Z" fill="white"/>
<path d="M381.541 374.175C374.063 382.048 366.986 387.125 361.395 391.137C295.674 438.292 217.91 424.547 201.382 421.19C176.977 416.233 129.801 406.652 95.6943 366.542C44.0933 305.861 52.1283 210.258 92.1535 147.15C99.4748 135.606 138.148 71.5365 216.75 61.2617C264.32 55.0434 319.77 67.5848 359.926 101.227C444.217 171.846 438.216 314.509 381.541 374.175Z" fill="#FFF8CE"/>
<path d="M317.704 339.262C372.774 284.192 372.774 194.904 317.704 139.834C262.633 84.7633 173.346 84.7633 118.276 139.834C63.2051 194.904 63.2051 284.192 118.276 339.262C173.346 394.333 262.633 394.333 317.704 339.262Z" fill="#FFE590"/>
<path d="M217.993 359.902C284.463 359.902 338.347 306.018 338.347 239.548C338.347 173.078 284.463 119.194 217.993 119.194C151.523 119.194 97.6392 173.078 97.6392 239.548C97.6392 306.018 151.523 359.902 217.993 359.902Z" fill="#F62717"/>
<path d="M217.993 365.93C148.306 365.93 91.6113 309.236 91.6113 239.548C91.6113 169.86 148.306 113.166 217.993 113.166C287.68 113.166 344.375 169.86 344.375 239.548C344.375 309.236 287.68 365.93 217.993 365.93ZM217.993 119.194C151.63 119.194 97.6398 173.184 97.6398 239.548C97.6398 305.912 151.63 359.902 217.993 359.902C284.356 359.902 338.346 305.912 338.346 239.548C338.346 173.184 284.356 119.194 217.993 119.194Z" fill="white"/>
<path d="M217.993 312.921C258.516 312.921 291.366 280.071 291.366 239.548C291.366 199.025 258.516 166.175 217.993 166.175C177.47 166.175 144.619 199.025 144.619 239.548C144.619 280.071 177.47 312.921 217.993 312.921Z" fill="#FFCA00"/>
<path d="M217.993 318.95C174.211 318.95 138.591 283.33 138.591 239.548C138.591 195.766 174.211 160.147 217.993 160.147C261.775 160.147 297.394 195.766 297.394 239.548C297.394 283.33 261.775 318.95 217.993 318.95ZM217.993 172.203C180.858 172.203 150.647 202.414 150.647 239.548C150.647 276.682 180.858 306.894 217.993 306.894C255.127 306.894 285.338 276.682 285.338 239.548C285.338 202.414 255.127 172.203 217.993 172.203Z" fill="white"/>
<path d="M217.992 267.975C233.692 267.975 246.419 255.248 246.419 239.548C246.419 223.848 233.692 211.121 217.992 211.121C202.293 211.121 189.565 223.848 189.565 239.548C189.565 255.248 202.293 267.975 217.992 267.975Z" fill="#FF3929"/>
<path d="M217.993 274.003C198.994 274.003 183.538 258.547 183.538 239.548C183.538 220.549 198.994 205.093 217.993 205.093C236.991 205.093 252.448 220.549 252.448 239.548C252.448 258.547 236.991 274.003 217.993 274.003ZM217.993 217.149C205.642 217.149 195.594 227.197 195.594 239.548C195.594 251.9 205.642 261.948 217.993 261.948C230.343 261.948 240.392 251.9 240.392 239.548C240.392 227.197 230.343 217.149 217.993 217.149Z" fill="white"/>
<path d="M352.549 105.355L355.543 108.349L242.162 221.73L239.168 218.736L352.549 105.355Z" fill="#3E3E3E"/>
<path d="M241.289 211.512C243.006 209.794 251.104 217.892 249.387 219.61L219.351 243.222C218.242 244.095 216.804 242.657 217.676 241.547L241.289 211.512Z" fill="#3E3E3E"/>
<path d="M355.479 108.414L370.732 109.93L349.792 130.87C342.932 137.731 333.355 141.152 323.7 140.193L355.479 108.414Z" fill="#FFCA00"/>
<path d="M352.484 105.42L350.968 90.1665L330.029 111.106C323.168 117.967 319.746 127.543 320.706 137.198L352.484 105.42Z" fill="#FFCA00"/>
<g opacity="0.3">
<path d="M143.158 84.3063C142.732 84.7325 142.041 84.7321 141.615 84.3059C140.787 83.4779 139.912 82.6733 139.012 81.9149C138.556 81.531 138.494 80.8544 138.867 80.3938C138.872 80.3882 138.876 80.3828 138.88 80.3772C139.269 79.9165 139.957 79.8579 140.418 80.2463C141.365 81.0448 142.288 81.8916 143.159 82.7634C143.557 83.1619 143.583 83.7924 143.235 84.2207C143.211 84.2504 143.186 84.2791 143.158 84.3063ZM134.378 78.5235C133.383 77.895 132.353 77.3032 131.313 76.7638C130.779 76.4865 130.57 75.8279 130.847 75.2929C131.128 74.7569 131.784 74.5494 132.318 74.827C133.412 75.3942 134.497 76.0172 135.544 76.6782C136.053 77.0001 136.205 77.6743 135.883 78.1837C135.86 78.2208 135.834 78.2559 135.807 78.289C135.464 78.7126 134.85 78.822 134.378 78.5235ZM126.047 74.4818C124.941 74.0915 123.804 73.7447 122.668 73.4508C122.085 73.3 121.734 72.7045 121.885 72.1212C122.036 71.5385 122.631 71.1875 123.215 71.338C124.411 71.6476 125.608 72.0129 126.773 72.4239C127.342 72.6243 127.64 73.2476 127.439 73.816C127.397 73.9371 127.335 74.046 127.258 74.1403C126.976 74.4885 126.494 74.6395 126.047 74.4818ZM117.022 72.4047C115.855 72.2713 114.669 72.1875 113.496 72.1545C112.894 72.1375 112.419 71.6354 112.436 71.0332C112.453 70.431 112.955 69.9567 113.557 69.973C114.792 70.0078 116.041 70.0964 117.269 70.2362C117.868 70.3046 118.298 70.8453 118.23 71.444C118.205 71.6582 118.12 71.8509 117.994 72.0068C117.767 72.2867 117.407 72.4483 117.022 72.4047ZM107.759 72.3902C106.594 72.5191 105.419 72.6997 104.265 72.9276C103.673 73.044 103.1 72.6592 102.983 72.068C102.866 71.4764 103.251 70.9028 103.843 70.7866C105.056 70.547 106.294 70.357 107.519 70.2214C108.118 70.1549 108.657 70.5867 108.723 71.1858C108.757 71.4876 108.664 71.7742 108.487 71.9929C108.312 72.2081 108.056 72.3572 107.759 72.3902ZM98.7238 74.4254C97.6149 74.8093 96.5088 75.2455 95.436 75.7222C94.8853 75.9669 94.2403 75.7188 93.9959 75.1684C93.751 74.6176 93.9987 73.973 94.5497 73.728C95.6786 73.2262 96.8432 72.7671 98.0101 72.3632C98.5797 72.1663 99.2008 72.4681 99.3981 73.0376C99.5263 73.4075 99.4436 73.7992 99.2138 74.0824C99.0899 74.2351 98.9236 74.3564 98.7238 74.4254ZM70.8917 103.873C70.3086 103.721 69.9588 103.125 70.1107 102.542C70.4219 101.347 70.7896 100.15 71.2035 98.9836C71.4051 98.4156 72.0289 98.1186 72.5967 98.3203C73.1645 98.5216 73.4614 99.1455 73.26 99.7132C72.867 100.821 72.5181 101.957 72.2226 103.092C72.1821 103.248 72.1101 103.386 72.015 103.504C71.7537 103.826 71.3192 103.984 70.8917 103.873ZM90.3695 78.4104C89.3742 79.0309 88.3938 79.7021 87.4555 80.406C86.9731 80.7673 86.2892 80.6697 85.9277 80.1875C85.5659 79.7051 85.6659 79.0236 86.1462 78.6598C87.1344 77.9188 88.167 77.212 89.2151 76.5585C89.7265 76.2398 90.3994 76.3958 90.7184 76.9073C90.9712 77.3128 90.9253 77.8203 90.6403 78.1718C90.566 78.2636 90.4751 78.3444 90.3695 78.4104ZM74.0808 94.9136C73.5466 94.6351 73.3392 93.9759 73.6177 93.4415C74.1885 92.3472 74.8141 91.2628 75.4765 90.2184C75.7974 89.7077 76.4736 89.5591 76.9825 89.8816C77.4911 90.2044 77.642 90.8786 77.3192 91.3876C76.6895 92.38 76.095 93.4104 75.5529 94.4507C75.5183 94.5171 75.4775 94.5782 75.4322 94.6341C75.1122 95.0288 74.5487 95.1576 74.0808 94.9136ZM83.1167 84.1616C82.2859 84.9887 81.4798 85.8625 80.721 86.7593C80.3318 87.2196 79.6434 87.2769 79.1832 86.8875C78.7293 86.5033 78.6674 85.8277 79.0402 85.3678C79.0451 85.3619 79.0501 85.3558 79.0552 85.3501C79.8538 84.4058 80.7023 83.4857 81.5766 82.6152C82.004 82.1903 82.6947 82.1917 83.12 82.6187C83.5171 83.0175 83.5419 83.6469 83.1951 84.0746C83.1707 84.1044 83.1444 84.1335 83.1167 84.1616Z" fill="#3E3E3E"/>
<path d="M70.7626 111.063C70.8979 110.896 70.9857 110.687 71.0027 110.457C71.0439 109.896 71.0978 109.326 71.1621 108.764C71.2309 108.165 70.8012 107.624 70.2027 107.555C69.604 107.486 69.0621 107.916 68.9944 108.515C68.9264 109.107 68.8698 109.706 68.8263 110.296C68.7819 110.897 69.2333 111.42 69.834 111.464C70.2044 111.492 70.5452 111.331 70.7626 111.063Z" fill="#3E3E3E"/>
</g>
<g opacity="0.3">
<path d="M81.465 142.56C81.7967 142.151 81.792 141.551 81.4293 141.146C81.0539 140.727 80.6808 140.293 80.321 139.857C79.9376 139.392 79.2499 139.325 78.7849 139.709C78.318 140.094 78.2538 140.78 78.637 141.245C79.0161 141.704 79.4088 142.161 79.8039 142.602C80.2061 143.051 80.8959 143.089 81.3449 142.687C81.3889 142.647 81.4289 142.605 81.465 142.56Z" fill="#3E3E3E"/>
<path d="M144.726 142.657C144.324 143.106 143.634 143.144 143.185 142.742C142.736 142.34 142.698 141.651 143.1 141.201C143.865 140.346 144.606 139.446 145.311 138.514C145.671 138.035 146.359 137.939 146.839 138.302C147.32 138.666 147.414 139.35 147.051 139.831C146.746 140.235 146.435 140.632 146.119 141.022C145.668 141.578 145.199 142.128 144.726 142.657ZM148.823 135.273C148.298 134.978 148.111 134.313 148.407 133.787C148.973 132.779 149.504 131.735 149.982 130.686C150.231 130.138 150.88 129.896 151.428 130.146C151.976 130.396 152.218 131.043 151.968 131.591C151.464 132.696 150.905 133.795 150.309 134.856C150.278 134.911 150.243 134.963 150.205 135.01C149.876 135.415 149.294 135.537 148.823 135.273ZM140.465 146.804C139.539 147.59 138.567 148.346 137.575 149.052C137.085 149.402 136.403 149.287 136.053 148.796C135.704 148.305 135.819 147.625 136.309 147.274C137.251 146.604 138.174 145.886 139.053 145.14C139.513 144.75 140.202 144.807 140.592 145.266C140.936 145.673 140.932 146.259 140.608 146.658C140.566 146.71 140.518 146.759 140.465 146.804ZM152.701 126.756C152.124 126.584 151.796 125.976 151.969 125.398C152.3 124.292 152.587 123.158 152.823 122.028C152.946 121.437 153.524 121.06 154.115 121.183C154.704 121.306 155.083 121.884 154.959 122.474C154.711 123.664 154.408 124.858 154.059 126.024C154.017 126.164 153.949 126.291 153.862 126.398C153.592 126.731 153.138 126.887 152.701 126.756ZM132.51 152.158C131.435 152.72 130.321 153.244 129.198 153.715C128.642 153.948 128.003 153.687 127.77 153.131C127.536 152.575 127.798 151.936 128.354 151.703C129.42 151.255 130.478 150.758 131.499 150.224C132.034 149.945 132.693 150.151 132.972 150.686C133.18 151.084 133.118 151.551 132.852 151.879C132.761 151.991 132.646 152.087 132.51 152.158ZM123.574 155.637C122.399 155.951 121.197 156.22 120.002 156.434C119.409 156.541 118.842 156.147 118.735 155.553C118.628 154.959 119.023 154.392 119.616 154.287C120.752 154.082 121.894 153.828 123.01 153.529C123.593 153.373 124.191 153.719 124.346 154.302C124.44 154.652 124.352 155.009 124.139 155.271C123.999 155.444 123.805 155.575 123.574 155.637ZM114.092 157.086C112.876 157.137 111.644 157.137 110.431 157.087C109.829 157.061 109.361 156.553 109.386 155.951C109.411 155.348 109.92 154.881 110.522 154.906C111.674 154.954 112.844 154.954 114 154.906C114.602 154.881 115.111 155.349 115.136 155.95C115.148 156.227 115.055 156.484 114.894 156.683C114.703 156.918 114.417 157.073 114.092 157.086ZM104.519 156.432C103.321 156.216 102.119 155.946 100.946 155.63C100.364 155.473 100.019 154.874 100.176 154.292C100.333 153.711 100.932 153.366 101.514 153.523C102.628 153.823 103.769 154.079 104.907 154.285C105.5 154.392 105.894 154.959 105.787 155.552C105.753 155.739 105.673 155.907 105.561 156.045C105.319 156.344 104.925 156.506 104.519 156.432ZM95.3191 153.69C94.2014 153.216 93.089 152.688 92.0127 152.121C91.4797 151.839 91.2752 151.179 91.5565 150.646C91.8368 150.115 92.4973 149.909 93.0305 150.19C94.0528 150.729 95.1093 151.23 96.171 151.681C96.7258 151.916 96.9849 152.556 96.7498 153.111C96.7088 153.207 96.6558 153.295 96.5928 153.373C96.2941 153.741 95.7772 153.884 95.3191 153.69ZM86.9548 148.999C86.2268 148.479 85.5059 147.93 84.8122 147.367C84.561 147.164 84.313 146.958 84.0674 146.75C83.608 146.36 83.5372 145.67 83.9408 145.212C84.3301 144.752 85.0187 144.695 85.4787 145.085C85.7119 145.282 85.948 145.479 86.1867 145.672C86.8462 146.207 87.5312 146.728 88.2233 147.223C88.7136 147.573 88.8272 148.255 88.4769 148.745C88.4637 148.763 88.4502 148.781 88.4361 148.799C88.0755 149.243 87.4266 149.336 86.9548 148.999Z" fill="#3E3E3E"/>
<path d="M155.535 117.166C155.672 116.998 155.759 116.787 155.776 116.555C155.816 115.965 155.845 115.364 155.861 114.767C155.878 114.165 155.403 113.663 154.8 113.647C154.198 113.63 153.696 114.105 153.68 114.707C153.664 115.274 153.637 115.845 153.598 116.405C153.557 117.006 154.011 117.527 154.612 117.568C154.981 117.593 155.319 117.433 155.535 117.166Z" fill="#3E3E3E"/>
</g>
<path d="M143.261 103.05C143.216 102.837 143.042 102.676 142.826 102.648L136.669 101.862C135.447 99.2335 133.797 96.781 131.742 94.6195L133.266 88.6068C133.319 88.3959 133.233 88.1743 133.051 88.055L126.825 83.973C126.643 83.8535 126.405 83.8629 126.233 83.996L121.327 87.7913C118.525 86.7678 115.618 86.2326 112.72 86.1602L109.544 80.8273C109.433 80.6404 109.215 80.5447 109.002 80.5891L101.713 82.1051C101.5 82.1493 101.339 82.3239 101.311 82.5398L100.525 88.6968C97.8967 89.9186 95.4441 91.5683 93.2828 93.6244L87.2701 92.1001C87.0592 92.0465 86.8376 92.1328 86.7184 92.3147L82.6362 98.541C82.5168 98.7229 82.5263 98.9605 82.6593 99.1326L86.4546 104.039C85.431 106.841 84.8959 109.748 84.8236 112.646L79.4907 115.821C79.3038 115.933 79.208 116.15 79.2525 116.363L80.7685 123.653C80.8127 123.866 80.9874 124.027 81.2031 124.055L87.3602 124.841C88.5819 127.469 90.2318 129.922 92.2877 132.083L90.7635 138.096C90.71 138.307 90.7962 138.528 90.9782 138.648L97.2044 142.73C97.3863 142.849 97.6239 142.84 97.796 142.707L102.702 138.911C105.504 139.935 108.411 140.47 111.309 140.542L114.485 145.875C114.596 146.062 114.814 146.158 115.027 146.114L122.316 144.598C122.529 144.553 122.69 144.379 122.718 144.163L123.504 138.006C126.133 136.784 128.585 135.134 130.746 133.078L136.759 134.603C136.97 134.656 137.192 134.57 137.311 134.388L141.393 128.162C141.512 127.98 141.503 127.742 141.37 127.57L137.575 122.664C138.598 119.862 139.133 116.955 139.206 114.057L144.539 110.881C144.726 110.77 144.821 110.552 144.777 110.339L143.261 103.05Z" fill="#3E3E3E"/>
<path d="M117.078 118.862C114.04 121.654 109.296 121.453 106.504 118.415C105.151 116.943 104.453 115.033 104.537 113.035C104.621 111.038 105.478 109.193 106.95 107.841C109.989 105.049 114.732 105.249 117.525 108.288C120.065 111.052 120.128 115.227 117.831 118.061C117.603 118.342 117.352 118.61 117.078 118.862ZM106.282 113.109C106.217 114.641 106.752 116.105 107.79 117.234C109.93 119.563 113.567 119.717 115.897 117.576C118.228 115.436 118.38 111.799 116.239 109.469C114.098 107.139 110.461 106.986 108.132 109.126C107.921 109.321 107.726 109.528 107.549 109.747C106.778 110.697 106.334 111.865 106.282 113.109Z" fill="#FFCA00"/>
<path d="M126.131 124.987C126.525 124.501 126.898 123.991 127.246 123.46C127.356 123.293 127.462 123.124 127.567 122.953C128.08 122.112 128.526 121.231 128.898 120.324C128.903 120.312 128.908 120.3 128.913 120.287C128.927 120.252 128.941 120.217 128.955 120.182C128.983 120.113 129.009 120.044 129.036 119.976C129.106 119.795 129.047 119.596 128.904 119.48C128.87 119.451 128.83 119.428 128.786 119.411C128.561 119.324 128.309 119.437 128.222 119.662C127.776 120.819 127.202 121.936 126.516 122.981C123.111 128.176 117.398 130.967 111.605 130.892C108.382 130.852 105.135 129.924 102.246 128.029C101.74 127.697 101.253 127.342 100.789 126.965C97.6656 124.432 95.5259 120.931 94.6961 116.94C93.7425 112.357 94.6312 107.676 97.1983 103.76C102.501 95.6745 113.385 93.413 121.468 98.7123C121.966 99.039 122.446 99.3897 122.906 99.7628C124.898 101.379 126.515 103.413 127.633 105.725C127.662 105.784 127.702 105.835 127.751 105.874C127.878 105.977 128.058 106.004 128.216 105.927C128.433 105.822 128.524 105.562 128.419 105.344C127.245 102.917 125.548 100.782 123.456 99.0851C122.973 98.6935 122.469 98.3254 121.947 97.9823C113.461 92.4185 102.03 94.7987 96.4682 103.281C93.7731 107.392 92.8403 112.306 93.8414 117.118C94.7125 121.307 96.9588 124.983 100.238 127.643C100.725 128.038 101.236 128.411 101.767 128.759C105.878 131.454 110.792 132.387 115.604 131.387C119.795 130.515 123.471 128.268 126.131 124.987Z" fill="#FFCA00"/>
<g opacity="0.3">
<path d="M189.021 73.407C189.205 73.1806 189.226 72.8522 189.052 72.6C188.727 72.1291 188.384 71.6616 188.031 71.2105C187.801 70.9176 187.378 70.8658 187.085 71.095C186.79 71.3236 186.74 71.748 186.969 72.0411C187.305 72.4708 187.633 72.9164 187.943 73.3657C188.154 73.6718 188.574 73.7487 188.88 73.5376C188.935 73.5001 188.982 73.4559 189.021 73.407Z" fill="#3E3E3E"/>
<path d="M185.651 69.4799C185.389 69.7435 184.962 69.7447 184.698 69.4819C184.032 68.8195 183.325 68.1834 182.595 67.5919C182.441 67.4672 182.285 67.3438 182.128 67.2215C181.834 66.9932 181.781 66.5699 182.009 66.2759C182.236 66.0065 182.661 65.9289 182.955 66.1571C183.12 66.2852 183.283 66.4143 183.444 66.5448C184.209 67.1649 184.951 67.8318 185.649 68.5267C185.896 68.7724 185.913 69.1628 185.698 69.4281C185.683 69.446 185.668 69.463 185.651 69.4799ZM179.302 65.2908C178.324 64.7068 177.301 64.1781 176.262 63.7198C175.922 63.5694 175.767 63.1722 175.918 62.8313C176.068 62.4927 176.466 62.3363 176.806 62.4867C177.895 62.9669 178.968 63.5211 179.993 64.1337C180.312 64.3246 180.417 64.7385 180.226 65.0582C180.209 65.0862 180.19 65.1127 180.17 65.1375C179.963 65.3936 179.593 65.4648 179.302 65.2908ZM173.05 62.5366C171.961 62.2104 170.84 61.9494 169.717 61.7605C169.35 61.6987 169.103 61.351 169.164 60.9842C169.227 60.616 169.573 60.3692 169.941 60.4313C171.118 60.6293 172.294 60.9035 173.437 61.2451C173.793 61.3519 173.996 61.7275 173.889 62.084C173.863 62.1707 173.821 62.2486 173.767 62.315C173.6 62.5208 173.32 62.6171 173.05 62.5366ZM166.313 61.4024C165.175 61.3533 164.024 61.3745 162.892 61.4658C162.521 61.4955 162.196 61.2191 162.166 60.8481C162.137 60.4781 162.413 60.1524 162.784 60.1222C163.971 60.0266 165.178 60.0045 166.371 60.0559C166.743 60.0718 167.032 60.3867 167.016 60.7586C167.009 60.9084 166.954 61.0447 166.866 61.1532C166.736 61.3133 166.535 61.4122 166.313 61.4024ZM159.503 61.9476C158.388 62.1767 157.277 62.4769 156.2 62.8397C155.848 62.9586 155.465 62.7689 155.346 62.4161C155.227 62.0634 155.416 61.6807 155.77 61.5623C156.898 61.1819 158.063 60.8674 159.232 60.6269C159.596 60.5524 159.953 60.7869 160.028 61.1513C160.07 61.3573 160.013 61.5606 159.891 61.712C159.796 61.8287 159.662 61.9148 159.503 61.9476ZM153.032 64.1292C152.007 64.6222 151.004 65.1837 150.049 65.7988C149.737 66.0003 149.319 65.9101 149.118 65.5975C148.916 65.2847 149.006 64.8689 149.319 64.6656C150.32 64.0206 151.373 63.4314 152.448 62.9144C152.784 62.7534 153.186 62.8943 153.347 63.2295C153.464 63.4724 153.422 63.7505 153.263 63.9465C153.203 64.0213 153.125 64.0846 153.032 64.1292ZM147.293 67.8257C146.423 68.5528 145.588 69.3442 144.81 70.1787C144.555 70.4504 144.129 70.4652 143.857 70.2112C143.585 69.9576 143.574 69.5352 143.824 69.2584C144.64 68.3843 145.516 67.5543 146.429 66.7917C146.714 66.5532 147.14 66.5912 147.378 66.8767C147.588 67.1278 147.584 67.4873 147.385 67.7327C147.358 67.7657 147.327 67.7971 147.293 67.8257ZM139.879 75.9707C139.554 75.7905 139.436 75.3807 139.616 75.0549C140.115 74.1533 140.672 73.2636 141.27 72.4127C141.36 72.2829 141.451 72.155 141.544 72.0276C141.753 71.7217 142.184 71.6598 142.485 71.8798C142.786 72.0989 142.852 72.5201 142.634 72.8213C142.546 72.9404 142.461 73.061 142.375 73.1848C141.802 73.9991 141.271 74.8477 140.795 75.7074C140.776 75.7428 140.753 75.7759 140.729 75.8061C140.527 76.0554 140.169 76.1314 139.879 75.9707Z" fill="#3E3E3E"/>
</g>
<g opacity="0.3">
<path d="M187.443 107.782C186.692 108.685 185.878 109.549 185.026 110.353C184.755 110.607 184.329 110.595 184.074 110.324C183.818 110.053 183.835 109.627 184.102 109.371C184.915 108.606 185.69 107.781 186.407 106.92C186.645 106.634 187.07 106.595 187.356 106.833C187.64 107.069 187.681 107.489 187.449 107.775C187.447 107.778 187.445 107.78 187.443 107.782ZM188.603 105.138C188.29 104.936 188.201 104.519 188.403 104.207C189.011 103.266 189.568 102.28 190.059 101.275C190.223 100.943 190.626 100.801 190.961 100.965C191.295 101.128 191.434 101.532 191.271 101.866C190.756 102.92 190.172 103.954 189.535 104.939C189.521 104.959 189.507 104.979 189.492 104.998C189.278 105.262 188.895 105.327 188.603 105.138ZM182.313 112.611C181.365 113.306 180.367 113.949 179.346 114.521C179.021 114.704 178.61 114.588 178.428 114.263C178.246 113.939 178.362 113.53 178.686 113.346C179.66 112.8 180.612 112.187 181.517 111.524C181.817 111.304 182.239 111.369 182.458 111.669C182.643 111.922 182.627 112.26 182.439 112.492C182.403 112.536 182.361 112.576 182.313 112.611ZM191.766 99.0216C191.414 98.9006 191.227 98.5169 191.348 98.1651C191.712 97.1065 192.015 96.0153 192.247 94.9209C192.325 94.5575 192.683 94.325 193.046 94.4016C193.41 94.4792 193.643 94.8369 193.565 95.2011C193.322 96.3487 193.005 97.4938 192.622 98.6038C192.596 98.6804 192.557 98.7493 192.508 98.8088C192.335 99.0224 192.041 99.1161 191.766 99.0216ZM176.17 116.056C175.086 116.501 173.962 116.885 172.831 117.196C172.472 117.295 172.101 117.084 172.002 116.725C171.904 116.366 172.114 115.995 172.473 115.896C173.553 115.6 174.624 115.234 175.658 114.809C176.002 114.667 176.396 114.832 176.538 115.176C176.635 115.412 176.587 115.672 176.437 115.857C176.369 115.942 176.278 116.011 176.17 116.056ZM169.379 117.927C168.217 118.1 167.034 118.203 165.864 118.235C165.492 118.246 165.182 117.953 165.172 117.58C165.162 117.209 165.455 116.898 165.827 116.888C166.943 116.858 168.072 116.758 169.181 116.593C169.549 116.538 169.892 116.793 169.947 117.161C169.976 117.355 169.919 117.543 169.804 117.685C169.701 117.811 169.553 117.901 169.379 117.927ZM162.335 118.118C161.165 118.007 159.991 117.824 158.847 117.574C158.483 117.494 158.253 117.134 158.333 116.771C158.412 116.407 158.772 116.178 159.135 116.257C160.226 116.496 161.345 116.671 162.461 116.775C162.832 116.81 163.104 117.139 163.069 117.51C163.057 117.647 163.003 117.771 162.922 117.87C162.785 118.039 162.568 118.139 162.335 118.118Z" fill="#3E3E3E"/>
<path d="M193.943 92.0431C194.025 91.9422 194.078 91.8166 194.091 91.6773C194.14 91.1026 194.173 90.524 194.189 89.957C194.199 89.5852 193.906 89.275 193.534 89.2646C193.162 89.2556 192.852 89.548 192.841 89.92C192.827 90.4606 192.795 91.0127 192.748 91.5611C192.716 91.932 192.99 92.2587 193.361 92.2906C193.593 92.3104 193.807 92.2112 193.943 92.0431Z" fill="#3E3E3E"/>
</g>
<path d="M185.813 82.1178C185.783 81.9752 185.667 81.8672 185.522 81.8488L181.402 81.3227C180.585 79.5639 179.481 77.9228 178.105 76.4765L179.125 72.453C179.161 72.3119 179.103 72.1637 178.981 72.0838L174.815 69.3522C174.693 69.2723 174.534 69.2786 174.419 69.3676L171.136 71.9073C169.261 71.2224 167.316 70.8643 165.377 70.8158L163.252 67.2474C163.177 67.1223 163.031 67.0582 162.889 67.0879L158.011 68.1023C157.869 68.132 157.761 68.2488 157.742 68.3932L157.216 72.513C155.457 73.3307 153.816 74.4346 152.37 75.8104L148.347 74.7905C148.205 74.7548 148.057 74.8124 147.977 74.9341L145.246 79.1005C145.166 79.2223 145.172 79.3813 145.261 79.4964L147.801 82.7795C147.116 84.6544 146.758 86.5996 146.709 88.5387L143.141 90.6638C143.016 90.7382 142.952 90.8839 142.981 91.0265L143.996 95.9041C144.026 96.0465 144.142 96.1546 144.287 96.1731L148.407 96.6992C149.224 98.458 150.328 100.099 151.704 101.546L150.684 105.569C150.648 105.71 150.706 105.858 150.828 105.938L154.994 108.67C155.116 108.75 155.275 108.744 155.39 108.654L158.673 106.115C160.548 106.8 162.493 107.158 164.432 107.206L166.557 110.775C166.632 110.9 166.777 110.964 166.92 110.934L171.797 109.92C171.94 109.89 172.048 109.773 172.066 109.629L172.592 105.509C174.351 104.691 175.993 103.587 177.439 102.212L181.462 103.232C181.603 103.267 181.752 103.21 181.832 103.088L184.563 98.9217C184.643 98.8 184.637 98.6409 184.548 98.5258L182.008 95.2426C182.693 93.3678 183.051 91.4224 183.099 89.4834L186.668 87.3582C186.793 87.2838 186.857 87.1381 186.827 86.9955L185.813 82.1178Z" fill="#3E3E3E"/>
<path d="M168.354 92.764C167.351 93.6859 166.05 94.1618 164.689 94.104C163.329 94.0468 162.073 93.463 161.151 92.4602C159.249 90.3907 159.386 87.1652 161.455 85.2572C163.526 83.3556 166.756 83.4923 168.658 85.5616C169.579 86.5641 170.055 87.8654 169.998 89.2259C169.951 90.3317 169.556 91.3691 168.871 92.2135C168.714 92.4075 168.541 92.5917 168.354 92.764ZM162.143 91.548C162.821 92.2857 163.746 92.7152 164.747 92.7576C165.747 92.7997 166.704 92.4497 167.442 91.7721C168.179 91.0934 168.609 90.1699 168.651 89.1689C168.694 88.1685 168.343 87.2111 167.666 86.4739C166.266 84.9516 163.89 84.851 162.367 86.2497C162.23 86.3761 162.104 86.5101 161.99 86.6509C160.839 88.0707 160.871 90.1633 162.143 91.548Z" fill="#FFCA00"/>
<path d="M174.655 97.0271C174.923 96.6958 175.177 96.3483 175.416 95.9846C175.89 95.262 176.291 94.4904 176.609 93.6891C176.623 93.653 176.637 93.6169 176.651 93.5808C176.759 93.3015 176.668 92.9945 176.447 92.8151C176.393 92.7717 176.332 92.7357 176.264 92.7096C175.917 92.5756 175.528 92.75 175.393 93.0961C175.104 93.8469 174.732 94.5698 174.289 95.245L174.289 95.2453C174.265 95.2824 174.24 95.3193 174.215 95.3559C173.152 96.9444 171.733 98.2077 170.083 99.072C169.188 99.541 168.223 99.8921 167.21 100.112C167.202 100.114 167.194 100.116 167.186 100.118C167.16 100.123 167.135 100.129 167.11 100.134C164.143 100.751 161.112 100.176 158.578 98.5136C158.249 98.2987 157.935 98.0688 157.634 97.8251C155.612 96.1852 154.227 93.9183 153.69 91.3346C153.073 88.367 153.648 85.3371 155.31 82.8026C156.972 80.2702 159.521 78.5321 162.489 77.9144C165.456 77.2974 168.487 77.8725 171.021 79.5345C171.344 79.7457 171.654 79.9731 171.952 80.2142C173.242 81.2606 174.289 82.5771 175.012 84.0737C175.057 84.1658 175.119 84.2433 175.194 84.3035C175.39 84.4628 175.669 84.5045 175.912 84.3869C176.247 84.224 176.388 83.8222 176.225 83.4864C175.416 81.812 174.245 80.3385 172.802 79.168C172.469 78.8977 172.121 78.6437 171.761 78.4072C168.924 76.5478 165.534 75.9042 162.214 76.5948C158.894 77.2855 156.041 79.2246 154.183 82.0631C152.323 84.8988 151.68 88.2887 152.37 91.6091C152.971 94.4994 154.521 97.0354 156.784 98.8701C157.119 99.1423 157.472 99.3999 157.838 99.6404C163.329 103.24 170.606 102.021 174.655 97.0271Z" fill="#FFCA00"/>
<path d="M106.795 415.359C106.795 415.359 106.036 419.428 105.645 423.459C105.492 425.035 106.694 426.415 108.275 426.496C113.646 426.771 125.135 427.316 129.261 427.171C129.882 427.15 130.293 426.519 130.069 425.94C129.881 425.455 129.514 425.061 129.044 424.839L110.142 415.933L106.795 415.359Z" fill="#3E3E3E"/>
<path d="M106.229 412.958L106.76 417.839C106.76 417.839 110.071 419.419 112.359 417.697L111.034 412.251L106.229 412.958Z" fill="url(#paint0_linear_590_1371)"/>
<path d="M107.538 321.304C107.276 322.575 105.591 384.825 111.98 412.79C112.084 413.246 111.849 413.714 111.414 413.887C110.389 414.294 108.382 414.879 105.983 414.936C105.24 414.954 104.579 414.465 104.376 413.75C102.535 407.259 93.729 374.737 92.8354 343.743C91.8369 309.109 92.8467 342.564 92.8467 342.564L93.8302 321.171L107.538 321.304Z" fill="#3E3E3E"/>
<path d="M84.9367 417.277C84.9367 417.277 83.7709 419.323 82.6093 424.78C82.3996 425.766 83.0804 426.718 84.0823 426.826C85.8549 427.017 88.5839 427.268 90.772 427.273C91.7806 427.276 92.576 426.405 92.4642 425.403C92.2409 423.405 91.5171 420.123 89.2092 417.549L84.9367 417.277Z" fill="#3E3E3E"/>
<path d="M83.9897 410.996L85.2709 418.382C85.2709 418.382 86.5979 419.389 89.2484 418.693L88.6789 410.755L83.9897 410.996Z" fill="url(#paint1_linear_590_1371)"/>
<path d="M81.1778 322.964C75.4214 355.761 81.584 404.165 83.7277 413.648C83.8589 414.228 84.3222 414.676 84.9084 414.779C85.9039 414.954 87.5444 415.105 89.1674 414.65C89.7266 414.493 90.1231 413.994 90.1514 413.414C90.524 405.768 90.4327 358.803 95.6814 340.293C95.9473 339.355 96.5295 338.54 97.3295 337.983L107.24 331.079L108.103 319.774L81.1778 322.964Z" fill="#3E3E3E"/>
<path d="M116.455 261.051C100.146 260.626 82.1042 265.007 82.1042 265.007C76.9713 293.331 80.6712 326.094 80.6712 326.094C93.2678 329.526 107.564 324.325 107.564 324.325C109.776 312.487 119.888 279.207 119.888 279.207C127.867 278.294 134.454 276.057 139.89 273.068C135.812 268.248 133.925 262.147 133.115 258.543C127.331 260.281 121.486 261.182 116.455 261.051Z" fill="#FFCA00"/>
<path d="M164.867 237.484C163.283 235.533 161.246 236.43 161.246 236.43C158.749 246.547 146.084 254.648 133.115 258.543C133.925 262.147 135.812 268.249 139.89 273.068C161.465 261.207 164.867 237.484 164.867 237.484Z" fill="url(#paint2_linear_590_1371)"/>
<path d="M164.473 237.973C164.636 238.507 162.686 239.3 161.564 237.11C161.534 236.064 160.941 231.582 161.574 230.737C164.942 226.236 171.443 220.614 171.443 220.614C172.522 221.7 171.615 222.747 171.615 222.747L168.456 225.976C169.099 227.164 169.887 228.169 170.248 229.603C170.521 230.688 170.336 231.844 169.78 232.824C169.222 233.807 168.46 235.086 167.743 236.085C166.384 237.977 164.473 237.973 164.473 237.973Z" fill="url(#paint3_linear_590_1371)"/>
<path d="M167.068 228.076L164.195 230.465L163.277 232.862L165.791 235.705C165.791 235.705 166.691 230.941 167.336 229.914C167.981 228.887 167.656 228.384 167.068 228.076Z" fill="url(#paint4_linear_590_1371)"/>
<path d="M88.2099 280.861L82.1041 265.007C82.1041 265.007 66.769 275.214 64.1382 288.315C67.015 288.555 72.2465 289.354 77.3495 291.992C78.5354 285.805 88.2099 280.861 88.2099 280.861Z" fill="#FFCA00"/>
<path d="M101.383 295.851C101.383 295.851 84.1843 305.355 78.4911 297.045C77.3092 295.319 77.0387 293.613 77.3496 291.992C72.2466 289.354 67.0152 288.555 64.1382 288.315C63.3451 292.265 63.7043 296.477 65.9888 300.753C75.923 319.345 103.607 300.09 103.607 300.09L101.383 295.851Z" fill="url(#paint5_linear_590_1371)"/>
<path d="M100.059 247.651L94.7258 262.611C94.6375 262.859 94.737 263.135 94.9662 263.265C96.3735 264.06 101.449 266.37 107.629 262.534C108.273 262.134 108.715 261.477 108.819 260.726L110.624 247.751L100.059 247.651Z" fill="url(#paint6_linear_590_1371)"/>
<path d="M111.485 233.859C111.485 233.859 117.082 244.642 116.31 248.969C115.538 253.296 108.478 252.917 102.343 249.339L98.1436 237.713L111.485 233.859Z" fill="url(#paint7_linear_590_1371)"/>
<path d="M102.67 243.652C102.922 243.543 103.017 243.237 102.869 243.007C102.419 242.305 101.577 240.873 101.316 239.625C101.316 239.625 100.297 238.959 103.938 238.124C107.579 237.29 113.008 235.992 114.176 232.911C115.315 229.907 112.471 222.298 107.76 228.294C107.581 228.522 107.234 228.524 107.059 228.292C106.306 227.292 104.32 225.212 101.524 226.435C98.9071 227.579 98.5953 229.486 98.622 230.449C98.6299 230.732 98.3745 230.949 98.0968 230.894C96.7819 230.63 93.6226 230.384 92.116 233.613C90.8751 236.272 91.6508 237.792 92.3631 238.538C92.5938 238.78 92.4879 239.174 92.1673 239.269C91.299 239.525 90.174 240.249 90.2666 242.278C90.3946 245.084 93.5322 244.867 94.426 244.747C94.5725 244.728 94.7194 244.78 94.8174 244.89C95.5746 245.744 98.9887 249.374 102.717 249.843C103.04 249.884 103.293 249.567 103.19 249.258L101.62 244.547C101.547 244.329 101.654 244.09 101.865 243.999L102.67 243.652Z" fill="#3E3E3E"/>
<path d="M103.313 244.325C103.313 244.325 99.2814 241.502 98.9626 243.844C98.6438 246.185 102.584 247.274 104.55 246.419L103.313 244.325Z" fill="url(#paint8_linear_590_1371)"/>
<path d="M97.8681 310.871L107.237 278.153C107.343 277.782 107.66 277.511 108.044 277.466C109.741 277.268 114.66 276.712 120.339 276.232C127.18 275.653 135.124 275.184 139.871 275.583C140.545 275.64 140.953 276.354 140.653 276.961C137.954 282.422 126.85 304.638 121.289 311.915C121.105 312.156 120.82 312.297 120.517 312.295L98.7795 312.092C98.147 312.086 97.694 311.479 97.8681 310.871Z" fill="#3E3E3E"/>
<path d="M100.132 302.967C100.132 302.967 98.8267 297.6 99.3532 295.696C99.8797 293.792 100.9 291.345 104.299 291.888C107.699 292.432 111.71 293.865 111.71 293.865C111.71 293.865 111.507 296.345 108.923 295.545L110.526 296.784C110.526 296.784 110.297 298.77 108.114 297.709L109.604 299.353C109.604 299.353 108.667 300.984 107.061 299.938C105.455 298.892 104.686 303.613 100.132 302.967Z" fill="url(#paint9_linear_590_1371)"/>
<path d="M119.714 285.999C119.714 287.518 120.946 288.749 122.465 288.749C123.983 288.749 125.215 287.518 125.215 285.999C125.215 284.48 123.983 283.249 122.465 283.249C120.946 283.249 119.714 284.48 119.714 285.999Z" fill="#FFCA00"/>
<path d="M108.297 287.812L110.204 281.341C110.438 280.546 111.077 279.95 111.871 279.784C117.85 278.536 134.214 278.272 134.378 278.269L134.367 277.538C133.693 277.549 117.769 277.807 111.722 279.068C110.664 279.289 109.813 280.081 109.503 281.134L107.595 287.605L108.297 287.812Z" fill="#FFE590"/>
<path d="M351.792 239.154C352.051 238.657 352.787 238.736 352.937 239.276C353.492 241.276 354.837 244.765 357.659 246.005C357.801 246.067 357.936 246.13 358.066 246.194C358.194 245.81 358.195 245.364 357.889 244.896C357.012 243.555 358.595 241.724 358.595 241.724C358.595 241.724 358.7 243.337 359.926 244.352C360.982 245.227 361.489 247.173 360.767 248.77C359.24 254.702 356.953 262.547 365.861 268.279C374.769 274.011 387.314 257.462 387.314 257.462L381.088 277.2C381.088 277.2 371.477 284.292 360.299 274.32C349.12 264.348 356.529 249.836 356.529 249.836C356.529 249.836 348.003 246.397 351.792 239.154Z" fill="url(#paint10_linear_590_1371)"/>
<path d="M388.874 228.46C388.874 228.46 386.293 216.884 399.553 219.949C399.553 219.949 405.99 218.897 406.317 224.972C406.317 224.972 410.467 227.706 407.429 232.964C407.429 232.964 419.76 228.201 425.132 239.009C430.505 249.817 425.566 255.764 420.389 257.313C420.389 257.313 424.584 259.419 422.598 264.175C420.613 268.93 410.558 272.282 404.619 266.499C404.619 266.499 387.719 268.732 388.057 256.795C388.057 256.795 380.196 251.719 388.453 241.854C396.709 231.988 388.874 228.46 388.874 228.46Z" fill="#3E3E3E"/>
<path d="M388.146 255.294C390.81 254.495 398.569 253.02 405.949 259.83C407.2 260.985 407.712 262.74 407.265 264.384C405.283 271.681 400.053 293.241 404.639 302.569C404.639 302.569 396.558 311.477 387.742 304.298C387.742 304.298 383.787 287.058 378.606 279.49C375.029 274.266 384.309 259.87 386.658 256.392C387.013 255.866 387.537 255.476 388.146 255.294Z" fill="#3E3E3E"/>
<path d="M395.503 240.796C395.503 240.796 399.444 251.943 399.74 256.86C399.74 256.86 395.385 258.841 391.281 255.498C391.281 255.498 390.85 244.364 390.228 242.37L395.503 240.796Z" fill="url(#paint11_linear_590_1371)"/>
<path d="M390.029 225.597C390.029 225.597 379.722 240.022 385.883 244.212C392.044 248.402 399.382 238.151 399.382 238.151C399.382 238.151 401.774 230.255 399.273 227.577C396.772 224.899 390.029 225.597 390.029 225.597Z" fill="url(#paint12_linear_590_1371)"/>
<path d="M394.8 222.15C394.8 222.15 390.065 223.272 389.401 225.415C388.738 227.557 396.116 229.544 398.184 229.641L399.85 238.287C399.85 238.287 404.774 230.154 402.823 225.456C400.873 220.759 394.8 222.15 394.8 222.15Z" fill="#3E3E3E"/>
<path d="M397.384 237.089C397.384 237.089 401.396 232.443 402.992 235.472C404.588 238.501 399.381 240.775 397.578 239.288L397.384 237.089Z" fill="url(#paint13_linear_590_1371)"/>
<path d="M377.451 340.493C377.481 341.276 376.107 347.484 375.359 350.795C375.058 352.127 375.268 353.521 375.946 354.707L401.845 398.295C402.158 398.822 402.386 399.393 402.525 399.991C402.999 402.036 403.984 407.049 403.47 411.61L402.13 414.392L407.924 413.077L409.185 397.516L407.544 396.516C406.127 395.652 405.024 394.36 404.392 392.825C402.05 387.137 396.235 372.657 394.736 365.6C393.032 357.58 384.126 351.066 384.126 351.066L385.691 347.367L377.451 340.493Z" fill="url(#paint14_linear_590_1371)"/>
<path d="M414.363 407.722C414.363 407.722 411.234 402.762 410.866 400.83C410.498 398.9 409.473 395.489 407.544 396.516C407.544 396.516 406.635 405.896 406.948 409.562C407.262 413.227 402.805 413.109 402.805 413.109C402.805 413.109 401.577 413.282 400.677 414.181C400.056 414.802 400.5 415.88 401.377 415.936C402.835 416.03 405.152 416.055 407.584 415.585C408.434 415.42 409.064 414.697 409.116 413.833L409.758 403.037L413.705 408.02L414.363 407.722Z" fill="#3E3E3E"/>
<path d="M392.922 347.436C392.922 347.436 393.836 386.426 393.959 391.963C394.083 397.501 393.085 409.772 387.534 413.44L389.949 415.229C389.949 415.229 392.968 412.663 395.917 407.725C399.23 402.178 400.232 401.165 400.232 401.165L399.133 398.913C398.651 397.927 398.51 396.812 398.731 395.738C399.929 389.932 403.931 370.621 405.023 366.462C406.312 361.553 406.403 354.997 401.92 349.509C397.437 344.022 392.922 347.436 392.922 347.436Z" fill="url(#paint15_linear_590_1371)"/>
<path d="M398.048 416.986C398.221 416.987 398.367 416.864 398.391 416.694C398.576 415.394 399.345 410.183 399.974 408.833C400.695 407.288 403.05 400.784 399.973 400.231C399.973 400.231 392.324 411.407 390.855 412.914C389.387 414.421 387.534 413.44 387.534 413.44C387.534 413.44 386.103 413.863 385.024 415.242C384.511 415.898 384.989 416.861 385.822 416.869L390.974 416.918C392.471 416.933 393.817 416.024 394.373 414.634C395.28 412.369 396.838 409.046 398.653 407.572L397.71 416.607C397.689 416.808 397.846 416.984 398.048 416.986Z" fill="#3E3E3E"/>
<path d="M386.523 300.094C386.523 300.094 387.684 303.795 385.9 309.89L374.835 348.529C374.661 349.137 374.989 349.772 375.583 349.985C378.893 351.173 389.773 354.531 404.626 353.507C405.373 353.455 406 352.926 406.163 352.194C407.142 347.789 410.481 332.76 411.168 329.671C413.788 317.904 416.713 305.215 403.845 297.542C397.915 300.081 392.384 301.579 386.523 300.094Z" fill="#3E3E3E"/>
<path d="M407.005 261.286C407.005 261.286 419.594 271.749 422.719 286.045C425.843 300.342 404.322 301.862 404.322 301.862C404.322 301.862 401.401 298.599 397.932 299.763C394.464 300.926 397.664 294.069 401.722 294.087C405.78 294.105 403.9 297.314 409.641 294.713C415.233 292.18 418.69 284.346 404.421 272.47C403.594 271.782 402.934 270.904 402.537 269.904C399.765 262.926 401.963 258.353 407.005 261.286Z" fill="url(#paint16_linear_590_1371)"/>
<path d="M328.225 368.104H323.735V416.667H328.225V368.104Z" fill="#3E3E3E"/>
<path d="M345.646 417.603H306.314V415.005C306.314 414.825 306.46 414.68 306.639 414.68H345.321C345.5 414.68 345.646 414.825 345.646 415.005V417.603Z" fill="#3E3E3E"/>
<path d="M353.083 366.313C353.083 369.135 350.774 371.445 347.951 371.445H305.661C302.838 371.445 300.529 369.135 300.529 366.313V361.672C300.529 358.849 302.838 356.54 305.661 356.54H347.951C350.774 356.54 353.083 358.849 353.083 361.672V366.313Z" fill="#3E3E3E"/>
<path d="M286.172 401.919C286.172 401.919 271.655 408.172 272.487 414.716C272.487 414.716 287.493 411.838 290.179 407.549C292.865 403.259 291.385 400.775 291.385 400.775L286.172 401.919Z" fill="#3E3E3E"/>
<path d="M289.728 394.772L290.465 401.144C290.576 402.105 290.042 403.054 289.132 403.382C288.676 403.546 288.077 403.659 287.292 403.663C286.185 403.668 285.204 402.94 284.908 401.873L283.48 396.72L289.728 394.772Z" fill="url(#paint17_linear_590_1371)"/>
<path d="M321.443 345.912C321.443 345.912 294.74 344.677 281.454 352.425C268.167 360.174 282.127 397.362 282.127 397.362C282.127 397.362 285.598 398.108 290.596 395.438C290.596 395.438 283.464 368.214 295.852 363.478C309.78 358.153 324.186 359.448 324.186 359.448L321.517 346.753L321.443 345.912Z" fill="#3E3E3E"/>
<path d="M275.404 411.844C278.44 411.179 287.444 407.448 288.812 407.498C290.179 407.549 292.117 409.597 292.117 409.597C292.117 409.597 292.45 410.717 291.472 412.325C289.152 414.134 284.155 417.456 278.345 417.819C274.071 418.087 271.5 416.386 270.029 414.737C271.316 413.484 273.383 412.287 275.404 411.844Z" fill="#3E3E3E"/>
<path d="M278.345 417.819C284.155 417.456 289.152 414.134 291.472 412.325C290.811 413.412 289.552 414.721 287.185 416.059C281.313 419.376 271.609 418.892 269.685 418.146C268.143 417.548 268.62 416.108 270.029 414.737C271.499 416.386 274.071 418.087 278.345 417.819Z" fill="#FFE590"/>
<path d="M295.304 406.263C295.106 407.014 292.979 409.273 291.75 410.532C291.165 411.131 290.317 411.387 289.5 411.209C288.982 411.096 288.396 410.919 287.89 410.644C287.13 410.231 286.866 409.266 287.282 408.508L290.392 402.853L295.304 406.263Z" fill="url(#paint18_linear_590_1371)"/>
<path d="M347.905 343.673C347.905 343.673 350.235 360.208 343.496 363.588C336.758 366.968 321.976 369.18 316.885 377.756C311.794 386.332 302.65 403.165 294.329 408.001C294.329 408.001 289.577 406.456 288.188 404.119C288.188 404.119 298.065 378.154 302.185 371.843C305.754 366.378 310.972 358.504 318.385 355.099C320.507 354.124 320.673 351.872 320.299 349.567L319.619 345.369L347.905 343.673Z" fill="#3E3E3E"/>
<path d="M285.446 324.929C294.893 327.626 299.122 301.036 299.084 300.39L313.57 317.327C313.57 317.327 304.939 332.514 291.906 334.131C288.608 334.54 285.804 333.969 283.451 332.891C285.184 330.053 285.58 327.249 285.446 324.929Z" fill="#FFCA00"/>
<path d="M267.949 316.226C272.067 314.534 275.56 317.911 275.56 317.911C279.64 322.087 282.876 324.196 285.446 324.929C285.58 327.249 285.184 330.053 283.451 332.891C278.36 330.559 275.392 325.845 274.17 323.492C273.73 322.645 272.698 322.286 271.839 322.702C270.966 323.124 270.067 323.768 270.01 324.642C269.899 326.367 267.847 326.468 267.835 325.831C267.823 325.194 269.424 321.788 269.424 321.788C269.424 321.788 264.693 324.823 262.851 325.984C261.01 327.145 259.441 325.229 259.441 325.229C259.441 325.229 263.832 317.918 267.949 316.226Z" fill="url(#paint19_linear_590_1371)"/>
<path d="M344.266 289.448C344.266 289.448 331.569 280.787 300.905 296.452C300.905 296.452 297.747 300.455 299.226 304.968C300.706 309.48 318.912 333.904 319.62 345.369C319.62 345.369 332.065 352.696 348.222 345.432C348.222 345.432 353.639 315.157 344.266 289.448Z" fill="#3E3E3E"/>
<path d="M317.827 278.374L322.844 288.206C323.343 289.182 323.239 290.364 322.555 291.22C321.173 292.951 318.289 295.278 313.366 293.778C311.902 293.332 310.782 292.141 310.428 290.652L307.828 279.677L317.827 278.374Z" fill="url(#paint20_linear_590_1371)"/>
<path d="M353.667 323.78C354.527 317.803 338.734 306.22 338.734 306.22L344.265 289.448C344.265 289.448 374.401 310.954 368.064 328.517C367.155 331.035 365.8 332.869 364.148 334.169C360.956 327.624 356.629 324.904 353.667 323.78Z" fill="#FFCA00"/>
<path d="M331.635 325.438C331.635 325.438 349.5 330.428 353.206 324.99C353.458 324.621 353.605 324.215 353.668 323.78C356.629 324.904 360.957 327.624 364.148 334.169C355.666 340.842 339.311 333.362 334.868 331.12C334.137 330.751 333.296 330.679 332.515 330.923C330.934 331.416 328.195 332.182 326.669 332.098C324.437 331.976 322.041 340.043 318.242 338.001C318.242 338.001 319.968 324.218 331.635 325.438Z" fill="url(#paint21_linear_590_1371)"/>
<path d="M311.396 262.307C311.237 262.444 304.618 274.004 301.249 279.896C300.221 281.695 300.991 283.985 302.896 284.802L304.355 285.427C306.349 286.282 310.638 286.998 312.326 285.635L322.965 274.404C322.965 274.404 314.975 259.209 311.396 262.307Z" fill="url(#paint22_linear_590_1371)"/>
<path d="M325.963 271.34C327.268 270.607 328.837 269.122 327.615 266.496C326.374 263.828 323.92 263.596 322.34 263.766C321.701 263.835 321.123 263.429 320.937 262.814C320.831 262.463 320.572 262.154 320.012 262.065C319.257 261.946 318.788 261.175 318.985 260.436C319.363 259.017 319.299 257.09 317.017 255.709C312.967 253.257 309.182 256.818 308.128 259.914C307.074 263.009 311.615 265.418 314.515 265.91C316.719 266.283 317.795 268.826 318.184 270.024C318.307 270.403 318.249 270.816 318.029 271.15L314.794 276.065C315.684 277.184 316.473 278.367 317.25 279.564C317.541 279.25 317.795 278.989 317.994 278.807C319.399 277.52 321.897 278.184 322.926 278.538C323.264 278.654 323.631 278.627 323.948 278.463C325.068 277.884 327.33 276.257 325.476 273.181C325.088 272.537 325.308 271.708 325.963 271.34Z" fill="#3E3E3E"/>
<path d="M316.072 281.664C316.072 281.664 318.14 276.349 320.491 276.645C322.841 276.942 324.6 279.369 321.566 281.889C317.792 285.024 316.072 281.664 316.072 281.664Z" fill="url(#paint23_linear_590_1371)"/>
<path d="M308.824 336.813C308.792 336.815 308.76 336.816 308.728 336.815L266.992 336.77C265.96 336.769 265.124 335.932 265.125 334.9C265.127 333.868 265.967 333.015 266.996 333.034L308.732 333.079C309.764 333.08 310.599 333.918 310.598 334.949C310.597 335.949 309.811 336.764 308.824 336.813Z" fill="#3E3E3E"/>
<path d="M229.472 298.919H264.231C266.795 298.919 269.129 300.399 270.222 302.718L286.291 336.791H243.096C241.443 336.791 239.959 335.781 239.351 334.244L226.891 302.715C226.171 300.893 227.514 298.919 229.472 298.919Z" fill="#3E3E3E"/>
<path d="M253.96 316.389C254.713 318.729 254.156 321.002 252.717 321.466C251.277 321.929 249.5 320.408 248.746 318.067C247.993 315.727 248.55 313.454 249.989 312.991C251.429 312.528 253.207 314.049 253.96 316.389Z" fill="#FFCA00"/>
<path d="M235.107 426.33C234.876 426.33 234.641 426.285 234.415 426.191C233.526 425.82 233.114 424.822 233.497 423.96L270.28 341.177C270.663 340.316 271.694 339.919 272.584 340.288C273.474 340.659 273.885 341.658 273.502 342.519L236.719 425.302C236.434 425.945 235.787 426.33 235.107 426.33Z" fill="#FFCA00"/>
<path d="M276.545 426.329C275.865 426.329 275.219 425.945 274.933 425.302L238.15 342.519C237.767 341.657 238.178 340.659 239.068 340.288C239.957 339.918 240.989 340.315 241.372 341.177L278.155 423.96C278.538 424.821 278.127 425.82 277.237 426.19C277.011 426.285 276.776 426.329 276.545 426.329Z" fill="#FFCA00"/>
<path d="M348.966 426.329C348.735 426.329 348.5 426.285 348.274 426.191C347.384 425.82 346.973 424.821 347.356 423.96L384.138 341.177C384.521 340.316 385.552 339.918 386.443 340.288C387.332 340.659 387.743 341.658 387.36 342.519L350.578 425.302C350.292 425.944 349.646 426.329 348.966 426.329Z" fill="#FFCA00"/>
<path d="M390.403 426.329C389.723 426.329 389.077 425.945 388.791 425.302L352.008 342.519C351.626 341.657 352.037 340.659 352.926 340.288C353.816 339.918 354.847 340.315 355.231 341.177L392.013 423.96C392.396 424.821 391.985 425.82 391.096 426.19C390.87 426.285 390.634 426.329 390.403 426.329Z" fill="#FFCA00"/>
<path d="M394.717 338.621C394.811 338.078 394.683 337.517 394.369 337.09C394.055 336.663 393.587 336.416 393.093 336.416H225.757C225.108 336.416 224.503 336.787 224.153 337.4C223.803 338.013 223.756 338.783 224.029 339.443L225.842 343.837C226.257 344.843 227.157 345.487 228.147 345.487H391.944C392.865 345.487 393.657 344.756 393.832 343.744L394.717 338.621Z" fill="#FFCA00"/>
</g>
<defs>
<linearGradient id="paint0_linear_590_1371" x1="106.206" y1="415.336" x2="112.381" y2="415.395" gradientUnits="userSpaceOnUse">
<stop stop-color="#FEBBBA"/>
<stop offset="1" stop-color="#FF928E"/>
</linearGradient>
<linearGradient id="paint1_linear_590_1371" x1="83.9536" y1="414.807" x2="89.285" y2="414.858" gradientUnits="userSpaceOnUse">
<stop stop-color="#FEBBBA"/>
<stop offset="1" stop-color="#FF928E"/>
</linearGradient>
<linearGradient id="paint2_linear_590_1371" x1="133.154" y1="254.476" x2="164.703" y2="254.775" gradientUnits="userSpaceOnUse">
<stop stop-color="#FEBBBA"/>
<stop offset="1" stop-color="#FF928E"/>
</linearGradient>
<linearGradient id="paint3_linear_590_1371" x1="157.725" y1="249.421" x2="136.098" y2="297.385" gradientUnits="userSpaceOnUse">
<stop stop-color="#FEBBBA"/>
<stop offset="1" stop-color="#FF928E"/>
</linearGradient>
<linearGradient id="paint4_linear_590_1371" x1="164.754" y1="233.445" x2="173.716" y2="219.948" gradientUnits="userSpaceOnUse">
<stop stop-color="#FEBBBA"/>
<stop offset="1" stop-color="#FF928E"/>
</linearGradient>
<linearGradient id="paint5_linear_590_1371" x1="63.694" y1="298.504" x2="103.618" y2="298.883" gradientUnits="userSpaceOnUse">
<stop stop-color="#FEBBBA"/>
<stop offset="1" stop-color="#FF928E"/>
</linearGradient>
<linearGradient id="paint6_linear_590_1371" x1="93.0459" y1="276.458" x2="108.131" y2="247.175" gradientUnits="userSpaceOnUse">
<stop stop-color="#FEBBBA"/>
<stop offset="1" stop-color="#FF928E"/>
</linearGradient>
<linearGradient id="paint7_linear_590_1371" x1="114.392" y1="246.258" x2="97.1375" y2="235.508" gradientUnits="userSpaceOnUse">
<stop stop-color="#FEBBBA"/>
<stop offset="1" stop-color="#FF928E"/>
</linearGradient>
<linearGradient id="paint8_linear_590_1371" x1="109.796" y1="250.162" x2="94.2717" y2="240.49" gradientUnits="userSpaceOnUse">
<stop stop-color="#FEBBBA"/>
<stop offset="1" stop-color="#FF928E"/>
</linearGradient>
<linearGradient id="paint9_linear_590_1371" x1="99.2281" y1="297.42" x2="111.71" y2="297.42" gradientUnits="userSpaceOnUse">
<stop stop-color="#FEBBBA"/>
<stop offset="1" stop-color="#FF928E"/>
</linearGradient>
<linearGradient id="paint10_linear_590_1371" x1="347.988" y1="225.258" x2="381.477" y2="278.93" gradientUnits="userSpaceOnUse">
<stop stop-color="#FEBBBA"/>
<stop offset="1" stop-color="#FF928E"/>
</linearGradient>
<linearGradient id="paint11_linear_590_1371" x1="389.234" y1="262.385" x2="395.513" y2="248.441" gradientUnits="userSpaceOnUse">
<stop stop-color="#FEBBBA"/>
<stop offset="1" stop-color="#FF928E"/>
</linearGradient>
<linearGradient id="paint12_linear_590_1371" x1="388.911" y1="228.498" x2="401.653" y2="256.085" gradientUnits="userSpaceOnUse">
<stop stop-color="#FEBBBA"/>
<stop offset="1" stop-color="#FF928E"/>
</linearGradient>
<linearGradient id="paint13_linear_590_1371" x1="394.906" y1="225.729" x2="407.648" y2="253.316" gradientUnits="userSpaceOnUse">
<stop stop-color="#FEBBBA"/>
<stop offset="1" stop-color="#FF928E"/>
</linearGradient>
<linearGradient id="paint14_linear_590_1371" x1="424.467" y1="436.034" x2="377.688" y2="351.599" gradientUnits="userSpaceOnUse">
<stop stop-color="#FEBBBA"/>
<stop offset="1" stop-color="#FF928E"/>
</linearGradient>
<linearGradient id="paint15_linear_590_1371" x1="371.141" y1="373.393" x2="442.078" y2="396.822" gradientUnits="userSpaceOnUse">
<stop stop-color="#FEBBBA"/>
<stop offset="1" stop-color="#FF928E"/>
</linearGradient>
<linearGradient id="paint16_linear_590_1371" x1="419.975" y1="305.768" x2="352.923" y2="206.352" gradientUnits="userSpaceOnUse">
<stop stop-color="#FEBBBA"/>
<stop offset="1" stop-color="#FF928E"/>
</linearGradient>
<linearGradient id="paint17_linear_590_1371" x1="290.891" y1="399.776" x2="283.181" y2="398.07" gradientUnits="userSpaceOnUse">
<stop stop-color="#FEBBBA"/>
<stop offset="1" stop-color="#FF928E"/>
</linearGradient>
<linearGradient id="paint18_linear_590_1371" x1="294.892" y1="408.126" x2="287.656" y2="406.524" gradientUnits="userSpaceOnUse">
<stop stop-color="#FEBBBA"/>
<stop offset="1" stop-color="#FF928E"/>
</linearGradient>
<linearGradient id="paint19_linear_590_1371" x1="285.707" y1="326.195" x2="260.464" y2="320.608" gradientUnits="userSpaceOnUse">
<stop stop-color="#FEBBBA"/>
<stop offset="1" stop-color="#FF928E"/>
</linearGradient>
<linearGradient id="paint20_linear_590_1371" x1="323.584" y1="287.863" x2="306.836" y2="284.157" gradientUnits="userSpaceOnUse">
<stop stop-color="#FEBBBA"/>
<stop offset="1" stop-color="#FF928E"/>
</linearGradient>
<linearGradient id="paint21_linear_590_1371" x1="336.885" y1="329.727" x2="403.398" y2="422.867" gradientUnits="userSpaceOnUse">
<stop stop-color="#FEBBBA"/>
<stop offset="1" stop-color="#FF928E"/>
</linearGradient>
<linearGradient id="paint22_linear_590_1371" x1="314.315" y1="266.397" x2="305.901" y2="305.868" gradientUnits="userSpaceOnUse">
<stop stop-color="#FEBBBA"/>
<stop offset="1" stop-color="#FF928E"/>
</linearGradient>
<linearGradient id="paint23_linear_590_1371" x1="317.625" y1="304.02" x2="319.71" y2="279.466" gradientUnits="userSpaceOnUse">
<stop stop-color="#FEBBBA"/>
<stop offset="1" stop-color="#FF928E"/>
</linearGradient>
<clipPath id="clip0_590_1371">
<rect width="487" height="487" fill="white"/>
</clipPath>
</defs>
</svg>
