<svg width="20" height="20" viewBox="0 0 20 20" fill="none" xmlns="http://www.w3.org/2000/svg">
<path d="M7.54699 1.64521L8.35825 3.09888C9.09038 4.41073 8.79648 6.13165 7.64339 7.28475C7.64339 7.28475 7.64339 7.28475 7.64338 7.28475C7.64327 7.28487 6.24483 8.68354 8.78064 11.2194C11.3158 13.7545 12.7144 12.3574 12.7152 12.3566C12.7153 12.3566 12.7153 12.3566 12.7153 12.3566C13.8684 11.2035 15.5893 10.9096 16.9011 11.6417L18.3548 12.453C20.3357 13.5585 20.5696 16.3366 18.8285 18.0777C17.7822 19.124 16.5005 19.9381 15.0836 19.9918C12.6985 20.0822 8.64785 19.4786 4.58463 15.4154C0.52141 11.3522 -0.0822317 7.30153 0.00818956 4.91636C0.0619024 3.4995 0.876004 2.21779 1.92226 1.17154C3.66344 -0.569648 6.44147 -0.335704 7.54699 1.64521Z" fill="#FFCA00"/>
</svg>
