<svg width="32" height="28" viewBox="0 0 32 28" fill="none" xmlns="http://www.w3.org/2000/svg">
<path d="M2.87119 1.13224L3.1229 0.425741H3.1229L2.87119 1.13224ZM2.7517 0.293498C2.36151 0.154486 1.93251 0.358106 1.7935 0.748296C1.65449 1.13849 1.85811 1.56749 2.2483 1.7065L2.7517 0.293498ZM6.17461 2.90509L6.79643 2.48576L6.79643 2.48576L6.17461 2.90509ZM8.02465 17.6841L7.47699 18.1965V18.1965L8.02465 17.6841ZM29.0137 10.9112L29.7486 11.0607L29.7495 11.0561L29.0137 10.9112ZM28.3035 14.4028L29.0384 14.5522H29.0384L28.3035 14.4028ZM29.1227 6.3238L28.5254 6.77729V6.7773L29.1227 6.3238ZM26.8478 18.3526L26.3702 17.7743H26.3702L26.8478 18.3526ZM7.45359 10.7344V6.81524H5.95359V10.7344H7.45359ZM3.1229 0.425741L2.7517 0.293498L2.2483 1.7065L2.61949 1.83875L3.1229 0.425741ZM15.2006 19.75H22.7363V18.25H15.2006V19.75ZM7.45359 6.81524C7.45359 5.78951 7.45458 4.96125 7.38322 4.29322C7.31012 3.60888 7.15519 3.01775 6.79643 2.48576L5.55279 3.32443C5.72301 3.57684 5.83256 3.89887 5.89171 4.45254C5.95259 5.02253 5.95359 5.75714 5.95359 6.81524H7.45359ZM2.61949 1.83875C3.56122 2.17425 4.20511 2.40497 4.68424 2.6432C5.14323 2.87141 5.38527 3.076 5.55279 3.32443L6.79643 2.48576C6.43499 1.94978 5.95013 1.59743 5.35206 1.30006C4.77413 1.0127 4.0308 0.749197 3.1229 0.425741L2.61949 1.83875ZM5.95359 10.7344C5.95359 12.8343 5.97392 14.3111 6.16291 15.4292C6.36088 16.6005 6.74941 17.4189 7.47699 18.1965L8.57231 17.1717C8.06869 16.6334 7.79669 16.0949 7.64193 15.1792C7.47818 14.2104 7.45359 12.8704 7.45359 10.7344H5.95359ZM15.2006 18.25C13.1964 18.25 11.7738 18.2482 10.6948 18.0931C9.64279 17.942 9.02784 17.6585 8.57231 17.1717L7.47699 18.1965C8.25266 19.0255 9.2441 19.4001 10.4815 19.5779C11.6919 19.7518 13.2417 19.75 15.2006 19.75V18.25ZM6.70359 6.2428H23.942V4.7428H6.70359V6.2428ZM28.2787 10.7617L27.5685 14.2533L29.0384 14.5522L29.7486 11.0606L28.2787 10.7617ZM23.942 6.2428C25.1533 6.2428 26.2434 6.24383 27.1093 6.34191C27.5403 6.39073 27.8803 6.46022 28.1322 6.54993C28.3896 6.64156 28.4906 6.7315 28.5254 6.77729L29.7201 5.8703C29.4394 5.5006 29.0344 5.27891 28.6354 5.13683C28.2309 4.99281 27.7641 4.90649 27.2781 4.85144C26.3099 4.74177 25.1251 4.7428 23.942 4.7428V6.2428ZM29.7495 11.0561C29.992 9.82534 30.1901 8.82771 30.2384 8.03561C30.2875 7.22809 30.1928 6.49295 29.7201 5.8703L28.5254 6.7773C28.6835 6.98565 28.7809 7.29207 28.7411 7.94442C28.7005 8.61219 28.5287 9.49274 28.2778 10.7662L29.7495 11.0561ZM22.7363 19.75C23.8264 19.75 24.7128 19.7513 25.4222 19.6634C26.1528 19.5728 26.7826 19.3791 27.3253 18.9309L26.3702 17.7743C26.1289 17.9735 25.8122 18.1035 25.2376 18.1748C24.6418 18.2487 23.8645 18.25 22.7363 18.25V19.75ZM27.5685 14.2533C27.3409 15.3723 27.1824 16.1455 26.99 16.7238C26.804 17.2833 26.6125 17.5742 26.3702 17.7743L27.3253 18.9309C27.8671 18.4835 28.1796 17.9003 28.4134 17.1971C28.641 16.5128 28.8182 15.6348 29.0384 14.5522L27.5685 14.2533Z" fill="#FF3929"/>
<path d="M9.5 23C10.6046 23 11.5 23.8954 11.5 25C11.5 26.1046 10.6046 27 9.5 27C8.39543 27 7.5 26.1046 7.5 25C7.5 23.8954 8.39543 23 9.5 23Z" stroke="#FF3929" stroke-width="1.5"/>
<path d="M22.5 23.0001C23.6046 23.0001 24.5 23.8955 24.5 25.0001C24.5 26.1047 23.6046 27.0001 22.5 27.0001C21.3954 27.0001 20.5 26.1047 20.5 25.0001C20.5 23.8955 21.3954 23.0001 22.5 23.0001Z" stroke="#FF3929" stroke-width="1.5"/>
<path d="M17.6943 15V12M17.6943 12V9M17.6943 12H20.6943M17.6943 12H14.6943" stroke="#FF3929" stroke-width="1.5" stroke-linecap="round"/>
</svg>
