<svg width="31" height="29" viewBox="0 0 31 29" fill="none" xmlns="http://www.w3.org/2000/svg">
<path d="M2.17686 1.63224L2.42856 0.925741H2.42856L2.17686 1.63224ZM2.05737 0.793498C1.66718 0.654486 1.23817 0.858106 1.09916 1.2483C0.96015 1.63849 1.16377 2.06749 1.55396 2.2065L2.05737 0.793498ZM5.48028 3.40509L6.1021 2.98576L6.1021 2.98576L5.48028 3.40509ZM7.33031 18.1841L6.78265 18.6965V18.6965L7.33031 18.1841ZM28.3193 11.4112L29.0543 11.5607L29.0552 11.5561L28.3193 11.4112ZM27.6092 14.9028L28.3441 15.0522H28.3441L27.6092 14.9028ZM28.4284 6.8238L27.831 7.27729V7.2773L28.4284 6.8238ZM26.1534 18.8526L25.6759 18.2743H25.6759L26.1534 18.8526ZM6.75925 11.2344V7.31524H5.25925V11.2344H6.75925ZM2.42856 0.925741L2.05737 0.793498L1.55396 2.2065L1.92515 2.33875L2.42856 0.925741ZM14.5063 20.25H22.042V18.75H14.5063V20.25ZM6.75925 7.31524C6.75925 6.28951 6.76024 5.46125 6.68889 4.79322C6.61579 4.10888 6.46085 3.51775 6.1021 2.98576L4.85846 3.82443C5.02868 4.07684 5.13823 4.39887 5.19737 4.95254C5.25826 5.52253 5.25925 6.25714 5.25925 7.31524H6.75925ZM1.92515 2.33875C2.86688 2.67425 3.51078 2.90497 3.9899 3.1432C4.4489 3.37141 4.69093 3.576 4.85846 3.82443L6.1021 2.98576C5.74065 2.44978 5.25579 2.09743 4.65773 1.80006C4.07979 1.5127 3.33646 1.2492 2.42856 0.925741L1.92515 2.33875ZM5.25925 11.2344C5.25925 13.3343 5.27959 14.8111 5.46857 15.9292C5.66654 17.1005 6.05508 17.9189 6.78265 18.6965L7.87798 17.6717C7.37435 17.1334 7.10235 16.5949 6.94759 15.6792C6.78384 14.7104 6.75925 13.3704 6.75925 11.2344H5.25925ZM14.5063 18.75C12.5021 18.75 11.0795 18.7482 10.0005 18.5931C8.94846 18.442 8.3335 18.1585 7.87798 17.6717L6.78265 18.6965C7.55833 19.5255 8.54977 19.9001 9.78713 20.0779C10.9975 20.2518 12.5473 20.25 14.5063 20.25V18.75ZM6.00925 6.7428H23.2477V5.2428H6.00925V6.7428ZM27.5844 11.2617L26.8742 14.7533L28.3441 15.0522L29.0543 11.5606L27.5844 11.2617ZM23.2477 6.7428C24.459 6.7428 25.5491 6.74383 26.4149 6.84191C26.8459 6.89073 27.186 6.96022 27.4379 7.04993C27.6953 7.14156 27.7962 7.2315 27.831 7.27729L29.0257 6.3703C28.7451 6.0006 28.3401 5.77891 27.941 5.63683C27.5366 5.49281 27.0698 5.40649 26.5838 5.35144C25.6156 5.24177 24.4308 5.2428 23.2477 5.2428V6.7428ZM29.0552 11.5561C29.2976 10.3253 29.4958 9.32771 29.544 8.53561C29.5932 7.72809 29.4984 6.99295 29.0257 6.3703L27.831 7.2773C27.9892 7.48565 28.0865 7.79207 28.0468 8.44442C28.0061 9.11219 27.8343 9.99274 27.5835 11.2662L29.0552 11.5561ZM22.042 20.25C23.1321 20.25 24.0185 20.2513 24.7279 20.1634C25.4584 20.0728 26.0882 19.8791 26.631 19.4309L25.6759 18.2743C25.4346 18.4735 25.1178 18.6035 24.5432 18.6748C23.9475 18.7487 23.1701 18.75 22.042 18.75V20.25ZM26.8742 14.7533C26.6466 15.8723 26.488 16.6455 26.2957 17.2238C26.1096 17.7833 25.9182 18.0742 25.6759 18.2743L26.631 19.4309C27.1727 18.9835 27.4852 18.4003 27.7191 17.6971C27.9466 17.0128 28.1239 16.1348 28.3441 15.0522L26.8742 14.7533Z" fill="#408CFF"/>
<path d="M8.80566 23.5C9.91023 23.5 10.8057 24.3954 10.8057 25.5C10.8057 26.6046 9.91023 27.5 8.80566 27.5C7.70109 27.5 6.80566 26.6046 6.80566 25.5C6.80566 24.3954 7.70109 23.5 8.80566 23.5Z" stroke="#408CFF" stroke-width="1.5"/>
<path d="M21.8057 23.5001C22.9102 23.5001 23.8057 24.3955 23.8057 25.5001C23.8057 26.6047 22.9102 27.5001 21.8057 27.5001C20.7011 27.5001 19.8057 26.6047 19.8057 25.5001C19.8057 24.3955 20.7011 23.5001 21.8057 23.5001Z" stroke="#408CFF" stroke-width="1.5"/>
<path d="M17 15.5V12.5M17 12.5V9.5M17 12.5H20M17 12.5H14" stroke="#408CFF" stroke-width="1.5" stroke-linecap="round"/>
</svg>
