<svg width="29" height="29" viewBox="0 0 29 29" fill="none" xmlns="http://www.w3.org/2000/svg">
<path d="M29 14.5C29 22.5081 22.5081 29 14.5 29C6.49187 29 0 22.5081 0 14.5C0 6.49187 6.49187 0 14.5 0C22.5081 0 29 6.49187 29 14.5Z" fill="#FFDFDD"/>
<path d="M21.4697 24.6662C19.4873 26.028 17.0865 26.825 14.4997 26.825C11.9127 26.825 9.51194 26.028 7.52946 24.6661C6.65387 24.0647 6.27969 22.9189 6.78878 21.9866C7.84413 20.0538 10.0187 18.85 14.4996 18.85C18.9805 18.85 21.1551 20.0539 22.2104 21.9867C22.7195 22.919 22.3453 24.0648 21.4697 24.6662Z" fill="#F62717"/>
<path d="M14.4997 14.5C16.9021 14.5 18.8497 12.5524 18.8497 10.15C18.8497 7.74755 16.9021 5.79999 14.4997 5.79999C12.0972 5.79999 10.1497 7.74755 10.1497 10.15C10.1497 12.5524 12.0972 14.5 14.4997 14.5Z" fill="#F62717"/>
</svg>
