<svg width="38" height="23" viewBox="0 0 38 23" fill="none" xmlns="http://www.w3.org/2000/svg">
<path d="M29 16.1667C29.4857 16.1667 29.9411 16.2965 30.3333 16.5234C30.7382 16.7576 31.0757 17.0952 31.3099 17.5H35C36.1046 17.5 37 16.6046 37 15.5V11.5H29V16.1667Z" fill="#FFCA00"/>
<path d="M29 1.5H15C13.8954 1.5 13 2.39543 13 3.5V16.4281C13 17.0201 13.4799 17.5 14.0719 17.5C14.4545 17.5 14.7962 17.2838 15.0585 17.0052C15.5449 16.489 16.2348 16.1667 17 16.1667C17.9205 16.1667 18.732 16.633 19.2112 17.3424C19.2757 17.4378 19.3808 17.5 19.4959 17.5H26.6901C27.1512 16.7029 28.013 16.1667 29 16.1667V11.5V5.5V1.5Z" fill="#FFCA00"/>
<path d="M29 1.5H15C13.8954 1.5 13 2.39543 13 3.5V16.4281C13 17.0201 13.4799 17.5 14.0719 17.5V17.5C14.4545 17.5 14.7962 17.2838 15.0585 17.0052C15.5449 16.489 16.2348 16.1667 17 16.1667M29 1.5V11.5M29 1.5V5.5M29 5.5H33C35.2091 5.5 37 7.29086 37 9.5V11.5M29 5.5V11.5M29 16.1667C28.013 16.1667 27.1512 16.7029 26.6901 17.5M29 16.1667C29.4857 16.1667 29.9411 16.2965 30.3333 16.5234C30.7382 16.7576 31.0757 17.0952 31.3099 17.5M29 16.1667V11.5M26.6901 17.5C26.4632 17.8922 26.3333 18.3476 26.3333 18.8333C26.3333 20.3061 27.5272 21.5 29 21.5C30.4728 21.5 31.6667 20.3061 31.6667 18.8333C31.6667 18.3476 31.5368 17.8922 31.3099 17.5M26.6901 17.5H19.4959C19.3808 17.5 19.2757 17.4378 19.2112 17.3424V17.3424M17 16.1667C15.5272 16.1667 14.3333 17.3606 14.3333 18.8333C14.3333 20.3061 15.5272 21.5 17 21.5C18.4728 21.5 19.6667 20.3061 19.6667 18.8333C19.6667 18.281 19.4988 17.768 19.2112 17.3424M17 16.1667C17.9205 16.1667 18.732 16.633 19.2112 17.3424M31.3099 17.5H35C36.1046 17.5 37 16.6046 37 15.5V11.5M37 11.5H29M5 11.5H1M5 19.5H1M5 3.5H1" stroke="#FFCA00" stroke-width="2" stroke-linecap="round" stroke-linejoin="round"/>
</svg>
