<svg width="35" height="39" viewBox="0 0 35 39" fill="none" xmlns="http://www.w3.org/2000/svg">
<path d="M19.719 38.6014C25.9881 37.3448 34.0938 32.835 34.0938 21.1732C34.0938 10.5608 26.3258 3.49405 20.7401 0.246948C19.5007 -0.473575 18.0497 0.474003 18.0497 1.90766V5.57471C18.0497 8.46638 16.8339 13.7446 13.4557 15.94C11.7309 17.0609 9.86819 15.3833 9.65857 13.337L9.48644 11.6567C9.28634 9.70333 7.2969 8.51752 5.73569 9.70848C2.931 11.848 0 15.5947 0 21.1732C0 35.4346 10.607 39 15.9104 39C16.2189 39 16.5431 38.9907 16.8806 38.9713C17.7749 38.8586 16.8806 39.1703 19.719 38.6014Z" fill="#FF4D00"/>
<path d="M10.0273 31.8688C10.0273 37.1228 14.2616 38.7475 16.8803 38.9714C17.7746 38.8587 16.8803 39.1704 19.7188 38.6014C21.8018 37.8654 24.066 35.9761 24.066 31.8688C24.066 29.2662 22.4242 27.6604 21.1381 26.9088C20.7446 26.6788 20.2877 26.9683 20.2525 27.4227C20.141 28.8629 18.7581 30.01 17.816 28.915C16.9835 27.9473 16.6338 26.5337 16.6338 25.6294V24.4477C16.6338 23.7353 15.9166 23.2633 15.3039 23.6268C13.0257 24.9783 10.0273 27.7588 10.0273 31.8688Z" fill="#FFCA00"/>
</svg>
