<svg width="59" height="50" viewBox="0 0 59 50" fill="none" xmlns="http://www.w3.org/2000/svg">
<g clip-path="url(#clip0_819_2738)">
<path d="M33.6939 39.8589L43.4036 35.0041C51.8858 30.7629 56.1269 28.6424 56.1269 25.2843C56.1269 21.9262 51.8858 19.8056 43.4036 15.5645L33.6939 10.7097C26.8479 7.28666 23.4249 5.57516 21.4405 6.10052C19.5527 6.6003 18.0783 8.07471 17.5785 9.96253C17.0531 11.947 18.7646 15.37 22.1876 22.2159C22.6118 23.0644 23.4792 23.6288 24.4277 23.6332L39.9279 23.7053C40.7999 23.7094 41.5035 24.4196 41.4995 25.2916C41.4954 26.1636 40.7852 26.8673 39.9132 26.8632L24.6633 26.7922C23.6178 26.7874 22.6552 27.4175 22.1876 28.3526C18.7647 35.1986 17.0531 38.6216 17.5785 40.606C18.0783 42.4938 19.5527 43.9682 21.4405 44.468C23.4249 44.9934 26.8479 43.2819 33.6939 39.8589Z" fill="#3E3E3E"/>
</g>
<defs>
<clipPath id="clip0_819_2738">
<rect width="59" height="50" fill="white"/>
</clipPath>
</defs>
</svg>
