<svg width="37" height="38" viewBox="0 0 37 38" fill="none" xmlns="http://www.w3.org/2000/svg">
<path d="M8.31381 29.5506C9.79334 31.3333 12.547 31.3333 18.0544 31.3333H18.9438C24.4512 31.3333 27.2048 31.3333 28.6844 29.5506M8.31381 29.5506C6.83428 27.7679 7.34174 25.0614 8.35668 19.6484C9.07845 15.7989 9.43934 13.8742 10.8094 12.7371M8.31381 29.5506C8.31381 29.5506 8.31381 29.5506 8.31381 29.5506ZM28.6844 29.5506C30.1639 27.7679 29.6564 25.0614 28.6415 19.6484C27.9197 15.7989 27.5588 13.8742 26.1887 12.7371M28.6844 29.5506C28.6844 29.5506 28.6844 29.5506 28.6844 29.5506ZM26.1887 12.7371C24.8186 11.6 22.8603 11.6 18.9438 11.6H18.0544C14.1378 11.6 12.1796 11.6 10.8094 12.7371M26.1887 12.7371C26.1887 12.7371 26.1887 12.7371 26.1887 12.7371ZM10.8094 12.7371C10.8094 12.7371 10.8095 12.7371 10.8094 12.7371Z" stroke="#3E3E3E" stroke-opacity="0.5" stroke-width="1.5"/>
<path d="M20.9665 19L16.0332 23.9333M16.0332 19L20.9665 23.9333" stroke="#3E3E3E" stroke-opacity="0.5" stroke-width="1.5" stroke-linecap="round"/>
<path d="M14.8008 11.6V10.3667C14.8008 8.3232 16.4573 6.66666 18.5008 6.66666C20.5442 6.66666 22.2008 8.3232 22.2008 10.3667V11.6" stroke="#3E3E3E" stroke-opacity="0.5" stroke-width="1.5" stroke-linecap="round"/>
</svg>
